<svg width="634" height="584" viewBox="0 0 634 584" fill="none" xmlns="http://www.w3.org/2000/svg">
<mask id="mask0_195_85" style="mask-type:alpha" maskUnits="userSpaceOnUse" x="0" y="0" width="634" height="584">
<rect width="634" height="584" fill="white"/>
</mask>
<g mask="url(#mask0_195_85)">
<circle r="42.2215" transform="matrix(1 0 0 -1 575.664 178.803)" fill="black"/>
<circle cx="395.883" cy="226.472" r="42.2215" fill="black"/>
<circle r="42.2215" transform="matrix(1 0 0 -1 288.286 353.137)" fill="black"/>
<ellipse rx="42.2215" ry="42.9025" transform="matrix(1 0 0 -1 246.064 511.808)" fill="black"/>
<circle cx="574.983" cy="511.808" r="441.328" stroke="black" stroke-width="75"/>
<rect x="522.057" y="203.29" width="12" height="387.532" transform="rotate(-8.69545 522.057 203.29)" fill="black"/>
<rect x="522.057" y="203.29" width="12" height="387.532" transform="rotate(-8.69545 522.057 203.29)" fill="black"/>
<rect x="522.057" y="203.29" width="12" height="387.532" transform="rotate(-8.69545 522.057 203.29)" fill="black"/>
<rect x="522.057" y="203.29" width="12" height="387.532" transform="rotate(-8.69545 522.057 203.29)" fill="black"/>
<rect x="522.057" y="203.29" width="12" height="387.532" transform="rotate(-8.69545 522.057 203.29)" fill="black"/>
<rect x="522.057" y="203.29" width="12" height="387.532" transform="rotate(-8.69545 522.057 203.29)" fill="black"/>
<rect x="579.447" y="309.183" width="12" height="278.9" transform="rotate(-0.405617 579.447 309.183)" fill="black"/>
<rect x="579.447" y="309.183" width="12" height="278.9" transform="rotate(-0.405617 579.447 309.183)" fill="black"/>
<rect x="579.447" y="309.183" width="12" height="278.9" transform="rotate(-0.405617 579.447 309.183)" fill="black"/>
<rect x="579.447" y="309.183" width="12" height="278.9" transform="rotate(-0.405617 579.447 309.183)" fill="black"/>
<rect x="579.447" y="309.183" width="12" height="278.9" transform="rotate(-0.405617 579.447 309.183)" fill="black"/>
<rect x="579.447" y="309.183" width="12" height="278.9" transform="rotate(-0.405617 579.447 309.183)" fill="black"/>
</g>
</svg>
